# xmcd CD database file
#
# Track frame offsets:
#	150
#	21307
#	35488
#	53050
#	67365
#	86008
#	99040
#	114696
#	132789
#	153103
#
# Disc length: 2308 seconds
#
# Revision: 0
# Processed by: cddbd v1.5.2PL0 Copyright (c) Steve Scherf et al.
# Submitted via: CDex 1.70beta3
#
DISCID=7e09020a
DTITLE=Lica - BOSSA GAGA
DYEAR=1900
DGENRE=Blues
TTITLE0=Born This Way
TTITLE1=Just Dance
TTITLE2=Judas
TTITLE3=Eh,Eh -Nothing Eles I Can Say-
TTITLE4=Paparazzi
TTITLE5=Bad Romance
TTITLE6=Poker Face
TTITLE7=Telephone
TTITLE8=Speechless
TTITLE9=Summerboy
EXTD=
EXTT0=
EXTT1=
EXTT2=
EXTT3=
EXTT4=
EXTT5=
EXTT6=
EXTT7=
EXTT8=
EXTT9=
PLAYORDER=
